<svg width="52" height="53" viewBox="0 0 52 53" fill="none" xmlns="http://www.w3.org/2000/svg">
<g filter="url(#filter0_d_451_9354)">
<rect x="2" y="1.75" width="48" height="48" rx="10" fill="#E9F1FD"/>
<rect x="2.5" y="2.25" width="47" height="47" rx="9.5" stroke="#EAECF0"/>
<path d="M22.5802 36.3001C22.3602 36.3001 22.1302 36.2601 21.9202 36.1701C21.4502 35.9701 21.0902 35.5801 20.9302 35.0901L20.4902 33.7701C20.2902 33.1701 20.4702 32.4201 20.9102 31.9701L23.1802 29.6901C23.2102 29.6601 23.2502 29.5501 23.2502 29.5001V27.0301L18.6902 29.0001C18.0802 29.2601 17.4602 29.2301 16.9902 28.9201C16.5202 28.6101 16.2402 28.0501 16.2402 27.4001V26.1101C16.2402 25.1301 16.9402 24.0801 17.8302 23.7301L23.2402 21.3901V18.5501C23.2402 17.3401 24.0902 15.9501 25.1702 15.3901C25.6902 15.1301 26.2902 15.1301 26.8002 15.3901C27.8902 15.9501 28.7402 17.3301 28.7402 18.5401V21.3801L34.1802 23.7201C35.0702 24.1001 35.7502 25.1201 35.7502 26.1101V27.4001C35.7502 28.0601 35.4802 28.6101 35.0002 28.9201C34.5202 29.2301 33.9102 29.2601 33.3002 29.0101L28.7402 27.0401V29.5101C28.7402 29.5501 28.7802 29.6501 28.8102 29.6801L31.0902 31.9701C31.5302 32.4101 31.7102 33.1801 31.5102 33.7701L31.0702 35.0901C30.9002 35.5801 30.5402 35.9701 30.0602 36.1601C29.5902 36.3501 29.0702 36.3301 28.6202 36.1101C28.5702 36.0801 28.5202 36.0501 28.4702 36.0101L26.1402 34.0501C26.0602 33.9801 25.9002 33.9901 25.8302 34.0501L23.5002 36.0101C23.4602 36.0501 23.4102 36.0801 23.3602 36.1001C23.1202 36.2401 22.8502 36.3001 22.5802 36.3001ZM23.5602 25.3901C23.7902 25.3901 24.0102 25.4501 24.2002 25.5801C24.5502 25.8101 24.7502 26.2001 24.7502 26.6601V29.5101C24.7502 29.9401 24.5402 30.4501 24.2402 30.7501L21.9702 33.0301C21.9302 33.0801 21.8902 33.2301 21.9102 33.2901L22.3502 34.6201C22.3802 34.7201 22.4502 34.7601 22.4902 34.7801C22.5202 34.7901 22.5702 34.8101 22.6302 34.7901L24.8702 32.9001C25.5002 32.3601 26.4902 32.3601 27.1202 32.9001L29.3502 34.7801C29.4202 34.7901 29.4702 34.7801 29.5002 34.7701C29.5402 34.7501 29.6202 34.7101 29.6502 34.6101L30.0902 33.2901C30.1102 33.2201 30.0702 33.0701 30.0302 33.0301L27.7602 30.7501C27.4602 30.4701 27.2402 29.9501 27.2402 29.5101V26.6601C27.2402 26.2101 27.4302 25.8201 27.7702 25.5901C28.1102 25.3601 28.5502 25.3301 28.9702 25.5101L33.8902 27.6301C34.0402 27.6901 34.1402 27.6901 34.1702 27.6701C34.2002 27.6501 34.2402 27.5601 34.2402 27.4001V26.1101C34.2402 25.7301 33.9202 25.2401 33.5802 25.1001L28.0002 22.6901C27.5602 22.5001 27.2502 22.0201 27.2502 21.5401V18.5401C27.2502 17.8801 26.7302 17.0301 26.1302 16.7301C26.0502 16.6901 25.9502 16.6901 25.8602 16.7301C25.2802 17.0301 24.7502 17.9001 24.7502 18.5501V21.5501C24.7502 22.0201 24.4402 22.5101 24.0002 22.7001L18.4202 25.1101C18.0702 25.2501 17.7502 25.7401 17.7502 26.1101V27.4001C17.7502 27.5601 17.7902 27.6501 17.8202 27.6701C17.8502 27.6901 17.9502 27.6901 18.1002 27.6301L23.0102 25.5101C23.1902 25.4301 23.3802 25.3901 23.5602 25.3901Z" fill="#292D32"/>
</g>
<defs>
<filter id="filter0_d_451_9354" x="0" y="0.75" width="52" height="52" filterUnits="userSpaceOnUse" color-interpolation-filters="sRGB">
<feFlood flood-opacity="0" result="BackgroundImageFix"/>
<feColorMatrix in="SourceAlpha" type="matrix" values="0 0 0 0 0 0 0 0 0 0 0 0 0 0 0 0 0 0 127 0" result="hardAlpha"/>
<feOffset dy="1"/>
<feGaussianBlur stdDeviation="1"/>
<feColorMatrix type="matrix" values="0 0 0 0 0.0627451 0 0 0 0 0.0941176 0 0 0 0 0.156863 0 0 0 0.05 0"/>
<feBlend mode="normal" in2="BackgroundImageFix" result="effect1_dropShadow_451_9354"/>
<feBlend mode="normal" in="SourceGraphic" in2="effect1_dropShadow_451_9354" result="shape"/>
</filter>
</defs>
</svg>
